<?xml version="1.0" encoding="utf-8"?>
<!-- Svg Vector Icons : http://www.onlinewebfonts.com/icon -->
<!DOCTYPE svg PUBLIC "-//W3C//DTD SVG 1.1//EN" "http://www.w3.org/Graphics/SVG/1.1/DTD/svg11.dtd">
<svg version="1.1" xmlns="http://www.w3.org/2000/svg" xmlns:xlink="http://www.w3.org/1999/xlink" x="0px" y="0px" viewBox="0 0 256 256" enable-background="new 0 0 256 256" xml:space="preserve">
<metadata> Svg Vector Icons : http://www.onlinewebfonts.com/icon </metadata>
<g><g><g><path fill="#f1d90d" d="M57.5,11c-0.9,0.6-1.9,1.8-2.3,2.7c-0.7,2.2-0.8,24.1-0.1,26.2c0.6,1.7,34.3,35.7,36.5,36.9c1.1,0.5,3.6,0.7,10.4,0.7h9v29.3c0,33.6-0.2,32.5,4.8,38c3.6,3.9,6.9,5.4,13.1,6c5.9,0.6,8.8,1.5,12.4,4c11.2,7.7,12.1,25.2,1.8,34.7c-5.6,5.2-12.1,7.4-18.6,6.2c-6.9-1.2-7.1-1.4-33.1-27.3c-15.9-15.8-24.5-24-25.4-24.2c-5-1.3-7.2,2.1-10,15.2c-1.6,7.5-1.6,19.5,0.1,27.1c6.1,29.2,27.7,51.3,56.6,58c5.1,1.2,7.1,1.4,14.9,1.4c6.7,0.1,10.1-0.2,13.4-0.9c22.6-4.8,41.4-19,51.8-39.3c8.7-16.8,10.3-36.6,4.5-54.5c-6.7-20.6-23.4-38.5-43.4-46.3c-3-1.2-6.3-2.2-7.3-2.4l-2-0.4V89.9V77.5h9c6.8,0,9.4-0.2,10.4-0.7c2.2-1.2,35.9-35.2,36.5-36.9c0.8-2.4,0.7-24.3-0.2-26.5c-1.5-3.7,3.5-3.4-72.7-3.4C61.3,10,59.1,10.1,57.5,11z M102.7,21.5c0,0.2-5.7,6.1-12.7,13L77.3,47.2l-5.5-5.5l-5.5-5.5v-7.5v-7.5h18.2C94.5,21.1,102.7,21.2,102.7,21.5z M136.7,43.8L114,66.4h-8.6h-8.7L91,60.8l-5.7-5.6l17-17l17-17h20h20L136.7,43.8z M189.7,28.6v7.5l-15.2,15.2l-15.2,15.1H152c-4.1,0-10.4-0.2-14.1-0.4l-6.8-0.3l22.4-22.4l22.3-22.3h7h7L189.7,28.6L189.7,28.6z M133.8,93v15.5l1.3,1.6c1.1,1.2,2.1,1.7,4.4,2.2c22.5,4.5,40,19.5,47,40.3c3.2,9.5,4.1,21,2.4,31.2c-4.2,25.6-23.3,45.1-49.3,50.2c-6,1.2-17.3,1.2-23.2,0c-24.1-4.7-42-21.4-48.4-45c-1.3-4.6-1.4-6.2-1.4-14.9c-0.1-5.4,0.2-10.7,0.4-11.8l0.4-2.1l20.4,20.3c19.1,19.1,20.7,20.5,24.4,22.3c5.6,2.7,9.4,3.5,15.8,3.5c9.9,0,17.1-2.9,23.8-9.5c8-8,11.5-19.5,9.2-30.2c-2-9.5-9-18.5-18.2-23.3c-4.4-2.3-7.9-3.3-13.2-3.8c-3.4-0.3-4.6-0.6-5.7-1.6l-1.4-1.2l-0.2-29.6l-0.2-29.6h5.9h5.8L133.8,93L133.8,93z"/></g></g></g>
</svg>