<svg y="0px" x="0px" version="1.1" viewBox="14.75 4.25 73.25 92" xmlns:xlink="http://www.w3.org/1999/xlink" xmlns="http://www.w3.org/2000/svg"><g fill-rule="evenodd" fill="none" stroke-width="1" stroke="none"><g fill="#f1d90d"><g transform="translate(26.000000, 5.000000)"><g><path d="M19.9252337,43.1918311 C19.7567093,44.8242678 19.2588384,46.272487 18,47.0651037 C7.36522818,48.4903891 0,57.5525465 0,68.4588565 C0,80.3557015 9.75371677,90 21.7855362,90 C33.1465457,90 42.4763933,81.4011202 43.4814126,70.4264241 C43.9783129,67.99557 44.8739786,64.4883138 47.1620948,61.7124544 C47.521197,61.2390227 48,60.6698692 48,60.0554433 C48,59.0095669 47.1620948,58.0433585 46.084788,58.1617164 C45.0074813,58.2800744 42.1254312,60.7264688 42.1222909,60.7184076 C39.5076354,62.6649541 36.8678304,64.3163289 35.6117309,68.4750489 C34.7061074,73.249446 30.4680298,76.8622696 25.3765586,76.8622696 C19.6250845,76.8622696 14.9625935,72.252083 14.9625935,66.5651296 C14.9625935,61.6272168 18.4777567,57.5011042 23.1687827,56.4998495 C26.3341646,55.439484 28.8966053,51.6159904 29.6295542,48.7175569 C30.1770072,46.12402 30.0156487,44.540576 29.9480713,43.1918311 L33.0454589,43.1918311 L33.0454589,28.6317597 C37.299493,25.8518714 40.1111111,21.0432862 40.1111111,15.5771029 C40.1111111,6.97410651 33.1466517,0 24.5555556,0 C15.9644594,0 9,6.97410651 9,15.5771029 C9,21.4107389 12.2023338,26.4953938 16.9426963,29.1644571 L16.9426963,43.1918311 L19.9252337,43.1918311 L19.9252337,43.1918311 Z"/></g></g></g></g></svg>
